<svg width="100" height="58" viewBox="0 0 100 58" fill="none" xmlns="http://www.w3.org/2000/svg">
<path d="M86.2534 15.4206C66.1706 -4.66217 33.4966 -4.66217 13.4139 15.4206L0 28.8328L13.7466 42.5794C23.7872 52.6199 36.9764 57.6419 50.1672 57.6419C63.3581 57.6419 76.5456 52.6216 86.5878 42.5794L100.002 29.1655L86.2534 15.4206ZM84.1976 40.1909C65.4324 58.9544 34.9003 58.9544 16.1351 40.1909L4.77703 28.8328L15.8024 17.8074C34.5676 -0.956091 65.0997 -0.956091 83.8649 17.8074L95.223 29.1655L84.1976 40.1909Z" fill="white"/>
<path d="M48.2635 15.4358C41.7432 15.4358 36.4392 20.7398 36.4392 27.2601C36.4392 28.1925 37.1959 28.9493 38.1284 28.9493C39.0608 28.9493 39.8176 28.1925 39.8176 27.2601C39.8176 22.603 43.6064 18.8142 48.2635 18.8142C49.1959 18.8142 49.9527 18.0574 49.9527 17.125C49.9527 16.1925 49.1976 15.4358 48.2635 15.4358Z" fill="white"/>
<path d="M49.9527 6.98987C37.8446 6.98987 27.9932 16.8412 27.9932 28.9493C27.9932 41.0574 37.8446 50.9088 49.9527 50.9088C62.0608 50.9088 71.9122 41.0574 71.9122 28.9493C71.9122 16.8412 62.0625 6.98987 49.9527 6.98987ZM49.9527 47.5304C39.7078 47.5304 31.3716 39.1943 31.3716 28.9493C31.3716 18.7044 39.7078 10.3682 49.9527 10.3682C60.1976 10.3682 68.5338 18.7044 68.5338 28.9493C68.5338 39.1943 60.1993 47.5304 49.9527 47.5304Z" fill="white"/>
</svg>
