<?xml version="1.0" encoding="utf-8"?><svg viewBox="0 0 576 512" xmlns="http://www.w3.org/2000/svg" xmlns:xlink="http://www.w3.org/1999/xlink"><style>:root>svg{display:none}:root>svg:target{display:block}</style><svg aria-hidden="true" data-prefix="fab" data-icon="facebook-f" class="asvg-inline--fa afa-facebook-f afa-w-10" viewBox="0 0 320 512" id="facebook-f-brands" xmlns="http://www.w3.org/2000/svg"><path fill="currentColor" d="M279.14 288l14.22-92.66h-88.91v-60.13c0-25.35 12.42-50.06 52.24-50.06h40.42V6.26S260.43 0 225.36 0c-73.22 0-121.08 44.38-121.08 124.72v70.62H22.89V288h81.39v224h100.17V288z"/></svg><svg aria-hidden="true" data-prefix="fab" data-icon="instagram" class="bsvg-inline--fa bfa-instagram bfa-w-14" viewBox="0 0 448 512" id="instagram-brands" xmlns="http://www.w3.org/2000/svg"><path fill="currentColor" d="M224.1 141c-63.6 0-114.9 51.3-114.9 114.9s51.3 114.9 114.9 114.9S339 319.5 339 255.9 287.7 141 224.1 141zm0 189.6c-41.1 0-74.7-33.5-74.7-74.7s33.5-74.7 74.7-74.7 74.7 33.5 74.7 74.7-33.6 74.7-74.7 74.7zm146.4-194.3c0 14.9-12 26.8-26.8 26.8-14.9 0-26.8-12-26.8-26.8s12-26.8 26.8-26.8 26.8 12 26.8 26.8zm76.1 27.2c-1.7-35.9-9.9-67.7-36.2-93.9-26.2-26.2-58-34.4-93.9-36.2-37-2.1-147.9-2.1-184.9 0-35.8 1.7-67.6 9.9-93.9 36.1s-34.4 58-36.2 93.9c-2.1 37-2.1 147.9 0 184.9 1.7 35.9 9.9 67.7 36.2 93.9s58 34.4 93.9 36.2c37 2.1 147.9 2.1 184.9 0 35.9-1.7 67.7-9.9 93.9-36.2 26.2-26.2 34.4-58 36.2-93.9 2.1-37 2.1-147.8 0-184.8zM398.8 388c-7.8 19.6-22.9 34.7-42.6 42.6-29.5 11.7-99.5 9-132.1 9s-102.7 2.6-132.1-9c-19.6-7.8-34.7-22.9-42.6-42.6-11.7-29.5-9-99.5-9-132.1s-2.6-102.7 9-132.1c7.8-19.6 22.9-34.7 42.6-42.6 29.5-11.7 99.5-9 132.1-9s102.7-2.6 132.1 9c19.6 7.8 34.7 22.9 42.6 42.6 11.7 29.5 9 99.5 9 132.1s2.7 102.7-9 132.1z"/></svg><svg fill="none" viewBox="0 0 100 58" id="process-icon" xmlns="http://www.w3.org/2000/svg"><path d="M86.253 15.42c-20.082-20.082-52.756-20.082-72.84 0L0 28.834l13.747 13.746c10.04 10.04 23.23 15.063 36.42 15.063 13.191 0 26.379-5.02 36.42-15.063l13.415-13.413L86.253 15.42zm-2.055 24.77c-18.766 18.764-49.298 18.764-68.063 0L4.777 28.834l11.025-11.026C34.568-.956 65.1-.956 83.865 17.807l11.358 11.359L84.198 40.19z" fill="#fff"/><path d="M48.264 15.436c-6.52 0-11.825 5.304-11.825 11.824a1.69 1.69 0 003.379 0c0-4.657 3.788-8.446 8.446-8.446a1.69 1.69 0 000-3.378z" fill="#fff"/><path d="M49.953 6.99c-12.108 0-21.96 9.851-21.96 21.96 0 12.107 9.852 21.959 21.96 21.959s21.96-9.852 21.96-21.96-9.85-21.96-21.96-21.96zm0 40.54c-10.245 0-18.581-8.336-18.581-18.58 0-10.246 8.336-18.582 18.58-18.582 10.246 0 18.582 8.336 18.582 18.581S60.199 47.53 49.953 47.53z" fill="#fff"/></svg><svg fill="none" viewBox="0 0 50 50" id="project" xmlns="http://www.w3.org/2000/svg"><path d="M49.166 0h-37.5a.833.833 0 00-.833.833v12.5H12.5V1.667h35.833V47.5a.82.82 0 01-.767.833c-.072 0-.144-.006-.215-.007-.148-.004-.295-.008-.44-.023-.013 0-.024 0-.037-.005a5.842 5.842 0 01-5.172-5.166c0-.012-.004-.025-.005-.036a5.812 5.812 0 01-.03-.596v-1.667a.833.833 0 00-.834-.833H12.5V25h-1.667v15H4.167a.833.833 0 00-.834.833V42.5a7.508 7.508 0 007.5 7.5h36.75A2.482 2.482 0 0050 47.5V.833A.833.833 0 0049.166 0zM10.834 48.333A5.84 5.84 0 015 42.5v-.833h35v.833c.001.275.017.55.047.822.008.073.022.143.032.215.028.201.06.402.105.6.015.069.034.137.052.206a7.63 7.63 0 00.235.76c.076.207.161.409.256.608.02.04.038.083.058.12.104.212.22.417.344.616.017.027.032.055.048.084.136.213.283.418.44.616l.026.036a7.332 7.332 0 001.142 1.153l-31.952-.003z" fill="#fff"/><path d="M27.5 23.333a.833.833 0 00.59-.244l3.332-3.333a.833.833 0 000-1.178l-3.333-3.334A.833.833 0 0027.5 15H4.168a4.167 4.167 0 000 8.333H27.5zm-.215-6.536l2.37 2.37-2.37 2.37-.593-2.37.593-2.37zm-20.618-.13H25.6l-.417 1.666H8.333V20h16.85l.417 1.667H6.667v-5zm-5 2.5a2.5 2.5 0 012.5-2.5H5v5h-.833a2.5 2.5 0 01-2.5-2.5zM19.167 35.833h25c.46 0 .833-.373.833-.833V10a.833.833 0 00-1.423-.59l-25 25a.833.833 0 00.59 1.423zm24.166-23.821v2.155h-1.666v1.666h1.666V17.5h-1.666v1.667h1.666v1.666h-1.666V22.5h1.666v1.667h-1.666v1.666h1.666V27.5h-1.666v1.667h1.666v1.666h-1.666V32.5h1.666v1.667h-1.666V32.5H40v1.667h-1.667V32.5h-1.666v1.667H35V32.5h-1.667v1.667h-1.666V32.5H30v1.667h-1.667V32.5h-1.666v1.667H25V32.5h-1.667v1.667h-2.155l22.155-22.155z" fill="#fff"/><path d="M31.238 30.833h7.929c.46 0 .833-.373.833-.833v-7.93a.833.833 0 00-1.422-.588l-7.93 7.929a.833.833 0 00.59 1.422zm7.095-6.75v5.084H33.25l5.083-5.084zM38.333 5H21.667v1.667h16.666V5zM40.833 8.333H19.167V10h21.666V8.333zM19.167 25.833h-5V27.5h5v-1.667zM17.5 29.167h-3.333v1.666H17.5v-1.666z" fill="#fff"/></svg><svg aria-hidden="true" data-prefix="fab" data-icon="vk" class="esvg-inline--fa efa-vk efa-w-18" viewBox="0 0 576 512" id="vk-brands" xmlns="http://www.w3.org/2000/svg"><path fill="currentColor" d="M545 117.7c3.7-12.5 0-21.7-17.8-21.7h-58.9c-15 0-21.9 7.9-25.6 16.7 0 0-30 73.1-72.4 120.5-13.7 13.7-20 18.1-27.5 18.1-3.7 0-9.4-4.4-9.4-16.9V117.7c0-15-4.2-21.7-16.6-21.7h-92.6c-9.4 0-15 7-15 13.5 0 14.2 21.2 17.5 23.4 57.5v86.8c0 19-3.4 22.5-10.9 22.5-20 0-68.6-73.4-97.4-157.4-5.8-16.3-11.5-22.9-26.6-22.9H38.8c-16.8 0-20.2 7.9-20.2 16.7 0 15.6 20 93.1 93.1 195.5C160.4 378.1 229 416 291.4 416c37.5 0 42.1-8.4 42.1-22.9 0-66.8-3.4-73.1 15.4-73.1 8.7 0 23.7 4.4 58.7 38.1 40 40 46.6 57.9 69 57.9h58.9c16.8 0 25.3-8.4 20.4-25-11.2-34.9-86.9-106.7-90.3-111.5-8.7-11.2-6.2-16.2 0-26.2.1-.1 72-101.3 79.4-135.6z"/></svg></svg>